# xmcd
#
# Track frame offsets: 
#        150
#        19032
#        44147
#        63943
#        81657
#        100235
#        117349
#        136109
#        157675
#        169338
#        185923
#        200197
#        218223
#        225438
#        246976
#        264852
#        285162
#        300946
#
# Disc length: 4280 seconds
#
# Revision: 0
# Processed by: cddbd v1.5.2PL0 Copyright (c) Steve Scherf et al.
# Submitted via: ExactAudioCopy v0.95b3
#
DISCID=fa10b612
DTITLE=Rod Stewart  - Angel The Love songs(FLAC)
DYEAR=1900
DGENRE=
TTITLE0=Reason to Believe
TTITLE1=Manddlin Wind
TTITLE2=You Wear It Well
TTITLE3=I'd Rather Go Blind
TTITLE4=Angel
TTITLE5=Tomorrow is a Long Time
TTITLE6=Lady Day
TTITLE7=I Wouldn't Ever Change a Thing
TTITLE8=Man of Constant Sorrow
TTITLE9=Oh! No Not My Baby
TTITLE10=Jodie
TTITLE11=My Way of Giving
TTITLE12=I've Grown Accustomed to Her face
TTITLE13=Country Comforts
TTITLE14=Handbags and Gladrags
TTITLE15=Mama You Been on My Mind
TTITLE16=Jo's Lament
TTITLE17=Cindy's Lament
EXTD=
EXTT0=
EXTT1=
EXTT2=
EXTT3=
EXTT4=
EXTT5=
EXTT6=
EXTT7=
EXTT8=
EXTT9=
EXTT10=
EXTT11=
EXTT12=
EXTT13=
EXTT14=
EXTT15=
EXTT16=
EXTT17=
PLAYORDER=
